<?xml version="1.0" encoding="utf-8"?><svg xmlns="http://www.w3.org/2000/svg" xmlns:xlink="http://www.w3.org/1999/xlink"><symbol viewBox="0 0 893 701" id="Ellipse_1" xmlns="http://www.w3.org/2000/svg"><path d="M1088.77 231.294c32.62 209.997-185.278 418.189-486.684 465.009C300.679 743.123 35.614 382.7 2.993 172.703-29.627-37.295 292.5 73.395 593.906 26.575c431.624-67.047 462.244-5.28 494.864 204.719z"/></symbol><symbol viewBox="0 0 71 73" id="Ellipse_2" xmlns="http://www.w3.org/2000/svg"><path d="M10.71 7.7C24.91-6.219 32.874.31 47.757 15.496c14.883 15.185 31.05 33.277 16.85 47.194-14.199 13.917-37.775 12.888-52.658-2.297C-2.935 45.208-3.49 21.616 10.71 7.699z"/></symbol><symbol viewBox="0 0 1162 875" id="bigbluebubble" xmlns="http://www.w3.org/2000/svg"><path d="M1102.77 331.294c32.62 209.997-185.278 418.189-486.684 465.009-301.407 46.82-566.472-313.603-599.093-523.6-32.62-209.998 289.507-99.308 590.913-146.128 431.624-67.047 462.244-5.279 494.864 204.719zM216.71 703.699c14.2-13.917 22.164-7.388 37.047 7.798 14.883 15.185 31.05 33.277 16.851 47.194-14.2 13.917-37.776 12.888-52.659-2.297-14.884-15.186-15.438-38.778-1.239-52.695z"/></symbol></svg>