<svg width="16" height="17" viewBox="0 0 16 17" fill="none" xmlns="http://www.w3.org/2000/svg">
<path d="M4.85 0.81897H11.15C13.55 0.81897 15.5 2.80132 15.5 5.24114V11.6457C15.5 12.8185 15.0417 13.9433 14.2259 14.7726C13.4101 15.6019 12.3037 16.0678 11.15 16.0678H4.85C2.45 16.0678 0.5 14.0855 0.5 11.6457V5.24114C0.5 4.06831 0.958302 2.94351 1.77409 2.11419C2.58987 1.28488 3.69631 0.81897 4.85 0.81897ZM4.7 2.34386C3.98392 2.34386 3.29716 2.63304 2.79081 3.14779C2.28446 3.66254 2 4.36069 2 5.08865V11.7982C2 13.3154 3.2075 14.543 4.7 14.543H11.3C12.0161 14.543 12.7028 14.2538 13.2092 13.739C13.7155 13.2243 14 12.5261 14 11.7982V5.08865C14 3.57139 12.7925 2.34386 11.3 2.34386H4.7ZM11.9375 3.48752C12.1861 3.48752 12.4246 3.58793 12.6004 3.76666C12.7762 3.9454 12.875 4.18781 12.875 4.44058C12.875 4.69334 12.7762 4.93575 12.6004 5.11449C12.4246 5.29322 12.1861 5.39363 11.9375 5.39363C11.6889 5.39363 11.4504 5.29322 11.2746 5.11449C11.0988 4.93575 11 4.69334 11 4.44058C11 4.18781 11.0988 3.9454 11.2746 3.76666C11.4504 3.58793 11.6889 3.48752 11.9375 3.48752ZM8 4.63119C8.99456 4.63119 9.94839 5.03283 10.6517 5.74776C11.3549 6.46269 11.75 7.43234 11.75 8.4434C11.75 9.45447 11.3549 10.4241 10.6517 11.139C9.94839 11.854 8.99456 12.2556 8 12.2556C7.00544 12.2556 6.05161 11.854 5.34835 11.139C4.64509 10.4241 4.25 9.45447 4.25 8.4434C4.25 7.43234 4.64509 6.46269 5.34835 5.74776C6.05161 5.03283 7.00544 4.63119 8 4.63119ZM8 6.15607C7.40326 6.15607 6.83097 6.39706 6.40901 6.82602C5.98705 7.25497 5.75 7.83677 5.75 8.4434C5.75 9.05004 5.98705 9.63183 6.40901 10.0608C6.83097 10.4897 7.40326 10.7307 8 10.7307C8.59674 10.7307 9.16903 10.4897 9.59099 10.0608C10.0129 9.63183 10.25 9.05004 10.25 8.4434C10.25 7.83677 10.0129 7.25497 9.59099 6.82602C9.16903 6.39706 8.59674 6.15607 8 6.15607Z" fill="white"/>
</svg>
