<svg width="16" height="14" viewBox="0 0 16 14" fill="none" xmlns="http://www.w3.org/2000/svg">
<path d="M15.8448 1.86876C15.2673 2.13561 14.6448 2.31098 13.9998 2.39485C14.6598 1.99075 15.1698 1.3503 15.4098 0.580229C14.7873 0.961451 14.0973 1.22831 13.3698 1.3808C12.7773 0.725094 11.9448 0.343872 10.9998 0.343872C9.23728 0.343872 7.79728 1.80776 7.79728 3.61475C7.79728 3.87399 7.82728 4.12559 7.87978 4.36195C5.20978 4.22471 2.83228 2.92093 1.24979 0.946202C0.972285 1.42654 0.814785 1.99075 0.814785 2.58546C0.814785 3.7215 1.37729 4.72792 2.24728 5.29975C1.71478 5.29975 1.21979 5.14727 0.784785 4.91853C0.784785 4.91853 0.784785 4.91853 0.784785 4.94141C0.784785 6.52729 1.89479 7.85394 3.36478 8.15129C3.09478 8.22754 2.80978 8.26566 2.51729 8.26566C2.31479 8.26566 2.11229 8.24279 1.91729 8.20466C2.32229 9.49319 3.49978 10.4539 4.91728 10.4767C3.82228 11.3612 2.43478 11.8796 0.919785 11.8796C0.664785 11.8796 0.409785 11.8644 0.154785 11.8339C1.57978 12.7641 3.27478 13.3054 5.08978 13.3054C10.9998 13.3054 14.2473 8.31903 14.2473 3.99598C14.2473 3.85111 14.2473 3.71387 14.2398 3.56901C14.8698 3.11154 15.4098 2.53208 15.8448 1.86876Z" fill="white"/>
</svg>
