<svg width="16" height="17" viewBox="0 0 16 17" fill="none" xmlns="http://www.w3.org/2000/svg">
<path d="M8 0.849487C3.875 0.849487 0.5 4.27286 0.5 8.48917C0.5 12.3014 3.245 15.4655 6.83 16.0374V10.7003H4.925V8.48917H6.83V6.80417C6.83 4.89044 7.9475 3.83827 9.665 3.83827C10.4825 3.83827 11.3375 3.98313 11.3375 3.98313V5.86637H10.3925C9.4625 5.86637 9.17 6.45345 9.17 7.05578V8.48917H11.255L10.9175 10.7003H9.17V16.0374C10.9373 15.7536 12.5467 14.8369 13.7074 13.4527C14.8682 12.0685 15.504 10.3081 15.5 8.48917C15.5 4.27286 12.125 0.849487 8 0.849487Z" fill="white"/>
</svg>
